<svg width="105" height="73" viewBox="0 0 105 73" fill="none" xmlns="http://www.w3.org/2000/svg">
<g opacity="0.5">
<path fill-rule="evenodd" clip-rule="evenodd" d="M49.5904 47.7745V38.7116H54.2679C56.1847 38.7116 57.8025 38.0694 59.1213 36.8027L59.4378 36.4816C61.8469 33.8591 61.6887 29.7737 59.1213 27.3474C57.8376 26.0629 56.0792 25.3671 54.2679 25.4028H46.7593V47.7745H49.5904ZM49.5909 35.9641V28.1501H54.3396C55.3596 28.1501 56.3269 28.5426 57.048 29.2562C58.5781 30.7548 58.6133 33.2524 57.136 34.8045C56.4149 35.5716 55.3948 35.9998 54.3396 35.9641H49.5909ZM72.6441 33.663C71.4307 32.539 69.7778 31.9681 67.6852 31.9681C64.9947 31.9681 62.9725 32.9672 61.6361 34.9475L64.1331 36.5353C65.0475 35.1794 66.296 34.5015 67.8786 34.5015C68.881 34.5015 69.8481 34.8761 70.6043 35.554C71.3428 36.1963 71.7648 37.124 71.7648 38.1052V38.7653C70.6746 38.1587 69.303 37.8376 67.6149 37.8376C65.6454 37.8376 64.0628 38.3014 62.8846 39.247C61.7064 40.1925 61.1085 41.4413 61.1085 43.0291C61.0734 44.4742 61.6888 45.8479 62.7791 46.7756C63.8869 47.7746 65.2937 48.2742 66.9466 48.2742C68.8985 48.2742 70.446 47.4 71.6242 45.6516H71.7473V47.7746H74.4553V38.3371C74.4553 36.3569 73.8574 34.7869 72.6441 33.663ZM64.9598 44.9559C64.3794 44.5278 64.0277 43.832 64.0277 43.0827C64.0277 42.2442 64.4146 41.5485 65.1709 40.9954C65.9447 40.4424 66.912 40.1569 68.0552 40.1569C69.6381 40.1391 70.8692 40.4959 71.7486 41.2095C71.7486 42.4226 71.2737 43.4752 70.3416 44.3672C69.4974 45.2235 68.3542 45.7052 67.1583 45.7052C66.3668 45.7231 65.593 45.4555 64.9598 44.9559ZM80.5394 54.5005L90 32.4677H86.9226L82.5441 43.4573H82.4913L78.0072 32.4677H74.9299L81.1373 46.7935L77.6204 54.5005H80.5394Z" fill="#57626C"/>
<path d="M39.816 36.7491C39.816 35.8749 39.7457 35.0007 39.605 34.1444H27.665V39.0862H34.5055C34.2241 40.674 33.3097 42.1012 31.9733 42.9932V46.2044H36.0529C38.4444 43.9744 39.816 40.674 39.816 36.7491Z" fill="#57626C"/>
<path d="M27.6656 49.3085C31.077 49.3085 33.9609 48.1667 36.0535 46.2042L31.9738 42.993C30.8308 43.778 29.3713 44.224 27.6656 44.224C24.3597 44.224 21.5637 41.9583 20.5614 38.9254H16.3586V42.2437C18.504 46.5789 22.8826 49.3085 27.6656 49.3085Z" fill="#57626C"/>
<path d="M20.562 38.9255C20.0344 37.3378 20.0344 35.6072 20.562 34.0016V30.7012H16.3586C14.5471 34.3227 14.5471 38.6044 16.3586 42.226L20.562 38.9255Z" fill="#57626C"/>
<path d="M27.6656 28.7032C29.4768 28.6675 31.2177 29.3633 32.519 30.6299L36.1414 26.9548C33.8378 24.7783 30.8132 23.583 27.6656 23.6187C22.8826 23.6187 18.504 26.3661 16.3586 30.7013L20.5614 34.0196C21.5637 30.9689 24.3597 28.7032 27.6656 28.7032Z" fill="#57626C"/>
</g>
</svg>
