<svg width="105" height="73" viewBox="0 0 105 73" fill="none" xmlns="http://www.w3.org/2000/svg">
<g opacity="0.5">
<path fill-rule="evenodd" clip-rule="evenodd" d="M66.5288 56.9179C77.8348 56.9179 87.0001 47.6462 87.0001 36.209C87.0001 24.7717 77.8348 15.5 66.5288 15.5C61.4618 15.5 56.8247 17.3623 53.25 20.4471C49.6753 17.3623 45.0383 15.5 39.9713 15.5C28.6653 15.5 19.5 24.7717 19.5 36.209C19.5 47.6462 28.6653 56.9179 39.9713 56.9179C45.0383 56.9179 49.6753 55.0557 53.2501 51.9708C56.8248 55.0556 61.4618 56.9179 66.5288 56.9179Z" fill="#383E43"/>
<path fill-rule="evenodd" clip-rule="evenodd" d="M53.25 51.9708C57.6516 48.1724 60.4426 42.5204 60.4426 36.209C60.4426 29.8975 57.6516 24.2455 53.25 20.4471C56.8247 17.3623 61.4617 15.5 66.5287 15.5C77.8347 15.5 87 24.7717 87 36.209C87 47.6462 77.8347 56.9179 66.5287 56.9179C61.4617 56.9179 56.8247 55.0556 53.25 51.9708Z" fill="#57626C"/>
<path fill-rule="evenodd" clip-rule="evenodd" d="M53.2501 51.9708C57.6517 48.1724 60.4427 42.5204 60.4427 36.209C60.4427 29.8975 57.6517 24.2455 53.2501 20.4471C48.8485 24.2455 46.0575 29.8975 46.0575 36.209C46.0575 42.5204 48.8485 48.1724 53.2501 51.9708Z" fill="#57626C"/>
</g>
</svg>
