<svg width="105" height="73" viewBox="0 0 105 73" fill="none" xmlns="http://www.w3.org/2000/svg">
<g opacity="0.5">
<path d="M13.5 29.775C13.5 28.6861 14.3608 27.8257 15.4493 27.8257H20.7413C24.9698 27.8257 27.5272 30.3319 27.5272 33.9525V34.003C27.5272 38.1048 24.3367 40.232 20.3617 40.232H17.3993V43.9032C17.3993 44.9921 16.5382 45.8529 15.4493 45.8529C14.3608 45.8529 13.5 44.9921 13.5 43.9032V29.775ZM20.4883 36.7633C22.438 36.7633 23.5774 35.5986 23.5774 34.0796V34.0287C23.5774 32.2819 22.3618 31.3449 20.4122 31.3449H17.3993V36.7633H20.4883Z" fill="#57626C"/>
<path d="M26.9061 43.1947L33.0838 29.2437C33.5144 28.2815 34.2994 27.6993 35.363 27.6993H35.5907C36.6543 27.6993 37.4137 28.2815 37.8442 29.2437L44.022 43.1947C44.1486 43.4733 44.2244 43.7263 44.2244 43.9793C44.2244 45.0173 43.4142 45.8532 42.3762 45.8532C41.4645 45.8532 40.8568 45.3212 40.502 44.5113L39.3121 41.7258H31.5142L30.2734 44.6376C29.9442 45.397 29.2859 45.8528 28.4757 45.8528C27.4633 45.8528 26.678 45.0426 26.678 44.0295C26.6783 43.7516 26.7794 43.4733 26.9061 43.1947ZM37.8691 38.2827L35.4135 32.4338L32.9575 38.2827H37.8691Z" fill="#57626C"/>
<path d="M48.349 38.8651L42.6271 31.0922C42.3485 30.7121 42.146 30.2567 42.146 29.6994C42.146 28.6614 43.0068 27.8259 44.0953 27.8259C44.9817 27.8259 45.5386 28.307 46.0197 29.0158L50.3239 35.2192L54.7039 28.965C55.185 28.2561 55.7675 27.8007 56.5778 27.8007C57.7677 27.8007 58.4769 28.6358 58.4769 29.6994C58.4769 30.2314 58.2235 30.7121 57.9702 31.0665L52.2479 38.789V43.9035C52.2479 44.9923 51.3871 45.8531 50.2986 45.8531C49.2098 45.8531 48.349 44.9923 48.349 43.9035V38.8651Z" fill="#57626C"/>
<path d="M58.5938 36.8901V36.8392C58.5938 31.8009 62.3916 27.6738 67.8356 27.6738C70.4937 27.6738 72.2914 28.3827 73.7603 29.4715C74.1653 29.7754 74.5197 30.3323 74.5197 31.0159C74.5197 32.0795 73.6589 32.915 72.5953 32.915C72.0637 32.915 71.7093 32.7125 71.4307 32.5353C70.3421 31.7251 69.2027 31.2689 67.81 31.2689C64.8224 31.2689 62.6702 33.7505 62.6702 36.7887V36.8392C62.6702 39.8777 64.7718 42.4095 67.81 42.4095C69.4561 42.4095 70.5446 41.9028 71.6588 41.0171C71.9626 40.7641 72.3679 40.5865 72.8234 40.5865C73.8109 40.5865 74.6464 41.3968 74.6464 42.3842C74.6464 42.992 74.3425 43.4731 73.9881 43.7766C72.3932 45.169 70.5194 46.0049 67.6833 46.0049C62.4678 46.0049 58.5938 41.9789 58.5938 36.8901Z" fill="#57626C"/>
<path d="M75.6628 36.8901V36.8392C75.6628 31.8009 79.6376 27.6738 85.1068 27.6738C90.5761 27.6738 94.5003 31.75 94.5003 36.7887V36.8392C94.5003 41.8779 90.5252 46.0049 85.0563 46.0049C79.5874 46.0049 75.6628 41.9284 75.6628 36.8901ZM90.4238 36.8901V36.8392C90.4238 33.801 88.1959 31.2689 85.0563 31.2689C81.9167 31.2689 79.7393 33.7505 79.7393 36.7887V36.8392C79.7393 39.8777 81.9676 42.4095 85.1068 42.4095C88.2464 42.4095 90.4238 39.9282 90.4238 36.8901Z" fill="#57626C"/>
</g>
</svg>
