<svg width="105" height="73" viewBox="0 0 105 73" fill="none" xmlns="http://www.w3.org/2000/svg">
<g opacity="0.5">
<path fill-rule="evenodd" clip-rule="evenodd" d="M12.1543 43.0192L12.1543 43.0192L12.1543 43.0192C12.2305 42.586 12.3044 42.1663 12.3893 41.7466C12.7488 39.8482 13.1109 37.9523 13.473 36.0564L13.473 36.0563C13.835 34.1604 14.1971 32.2644 14.5567 30.366C14.6066 30.1255 14.6765 29.9652 14.9162 29.9252C16.784 29.6447 18.6617 29.4443 20.5294 29.9151C22.1574 30.3159 23.2961 31.468 23.4858 32.8204C23.8754 35.5153 22.3073 37.6692 19.9801 38.4406C18.7516 38.8413 17.5031 38.9415 16.2346 38.8213C15.935 38.7913 15.8451 38.8714 15.7952 39.1619C15.5255 40.6346 15.2458 42.0973 14.9562 43.5599C14.9362 43.6801 14.8263 43.8705 14.7564 43.8705C14.0776 43.8854 13.41 43.8836 12.716 43.8818C12.4808 43.8811 12.2425 43.8805 11.9998 43.8805C12.0547 43.5854 12.105 43.2995 12.1543 43.0193L12.1543 43.0192ZM16.863 36.4471L16.863 36.4471C17.2537 36.4577 17.6226 36.4678 17.9823 36.4269C19.0211 36.3167 19.8501 35.8459 20.3195 34.8541C20.8489 33.732 20.4693 32.5399 19.4705 32.1892C18.7614 31.9388 18.0323 31.9889 17.3032 32.089C17.2133 32.0991 17.0934 32.2393 17.0734 32.3295C16.9339 33.0626 16.7945 33.7989 16.6497 34.5627L16.6496 34.5637L16.6492 34.5657L16.649 34.5666C16.5349 35.1689 16.4176 35.7883 16.2944 36.4369C16.4896 36.4369 16.6787 36.4421 16.863 36.4471ZM29.7082 41.957C29.5501 42.1219 29.4021 42.2878 29.2574 42.4499C28.9449 42.8 28.648 43.1326 28.2999 43.3997C27.2511 44.2111 26.0526 44.3915 24.8441 43.8304C23.6455 43.2794 23.1561 42.2075 23.1062 40.9452C22.9963 38.2904 23.9252 36.0964 26.1525 34.5736C27.5508 33.6119 29.1588 33.3214 30.8268 33.4115C31.3785 33.4441 31.9261 33.5401 32.4749 33.6364C32.7705 33.6882 33.0665 33.7401 33.3637 33.7822C33.7033 33.8323 33.7533 34.0226 33.6933 34.3132C33.6133 34.7315 33.5323 35.1495 33.4514 35.5672L33.4511 35.569L33.4511 35.5691L33.4511 35.5692C33.1486 37.1311 32.8468 38.6894 32.5947 40.2539C32.4501 41.1496 32.3924 42.0671 32.3353 42.9755C32.3253 43.1339 32.3154 43.292 32.305 43.4497C32.285 43.7703 32.2051 43.9006 31.8755 43.8905C31.2563 43.8705 30.637 43.8705 30.0178 43.8905C29.6982 43.9006 29.5883 43.7803 29.6183 43.4698C29.6468 43.1265 29.6651 42.7731 29.6842 42.4058L29.6842 42.4051L29.6844 42.4009L29.6845 42.3993C29.6921 42.2541 29.6997 42.1068 29.7082 41.957ZM30.4075 35.7657C29.4387 35.4953 28.6297 35.6856 27.9505 36.2566C26.6721 37.3386 26.0928 38.7411 26.2026 40.4142C26.2326 40.9251 26.4324 41.416 26.9717 41.6364C27.5111 41.8568 28.0005 41.6965 28.42 41.3359C28.6696 41.1155 28.9094 40.865 29.0891 40.5845C29.7936 39.506 29.9861 38.2894 30.1815 37.0536C30.2493 36.625 30.3175 36.194 30.4075 35.7657ZM44.5605 41.3759C45.1099 43.1391 46.618 44.1209 49.2648 44.1209C51.0826 44.0708 52.8904 43.0389 54.0191 40.9151C54.6183 39.773 54.8381 38.5508 54.7582 37.2685C54.6883 36.0362 54.1989 34.9943 53.2001 34.253C52.1513 33.4716 50.9528 33.3113 49.6743 33.4515C45.3995 33.9324 43.6516 38.4706 44.5605 41.3759ZM47.405 39.9044C47.4061 39.8532 47.4072 39.8024 47.4072 39.7527C47.4371 38.6006 47.7168 37.5287 48.406 36.577C48.7156 36.1562 49.1051 35.8356 49.6245 35.7154C50.6832 35.475 51.5522 36.0861 51.652 37.2382C51.7719 38.6507 51.4323 39.9531 50.5434 41.0851C50.2038 41.5059 49.7743 41.7964 49.225 41.8465C48.2362 41.9367 47.4871 41.2655 47.4072 40.2136C47.4005 40.1131 47.4028 40.0082 47.405 39.9048V39.9048V39.9047V39.9047V39.9045V39.9044V39.9044ZM57.1352 33.6619H59.6722C59.6322 34.2029 59.5923 34.7238 59.5423 35.2548C59.6345 35.1687 59.7237 35.0836 59.8111 35.0002L59.8115 34.9998L59.812 34.9993C59.9989 34.821 60.1778 34.6502 60.3613 34.4934C61.3501 33.6318 62.4788 33.2511 63.7872 33.4615C64.8659 33.6418 65.615 34.4333 65.7348 35.5453C65.8651 36.7024 65.6487 37.8247 65.4328 38.9447L65.3853 39.1919C65.298 39.6451 65.2117 40.0983 65.1255 40.5512L65.1252 40.5527L65.1248 40.5549L65.1244 40.5572L65.1243 40.5573L65.1243 40.5575C64.9346 41.5542 64.7451 42.5493 64.5463 43.5398C64.5163 43.67 64.3665 43.8604 64.2666 43.8704C63.4077 43.8904 62.5487 43.8804 61.6898 43.8704H61.6897C61.6609 43.8704 61.6321 43.8548 61.5884 43.8311C61.5714 43.8219 61.5522 43.8115 61.5299 43.8003C61.6897 42.9688 61.8495 42.1272 61.9994 41.2857C62.2291 39.9934 62.4488 38.711 62.6486 37.4187C62.6885 37.1983 62.6685 36.9679 62.6386 36.7475C62.5587 35.9761 61.9894 35.6254 61.2503 35.8559C60.5311 36.0863 60.1017 36.6473 59.7521 37.2684C59.2327 38.1801 59.0529 39.1919 58.8731 40.2037C58.8281 40.4546 58.7835 40.7049 58.739 40.9549L58.7389 40.9555L58.7389 40.9556L58.7389 40.9559C58.5861 41.814 58.434 42.6689 58.2639 43.5298C58.2339 43.66 58.0841 43.8604 57.9842 43.8704C57.2838 43.8943 56.5771 43.8929 55.8235 43.8913C55.6315 43.8908 55.4364 43.8904 55.2375 43.8904C55.8967 40.4442 56.516 37.0681 57.1352 33.6619ZM71.5375 41.7867C70.4788 41.6564 69.7697 40.9151 69.8396 39.8732C70.0604 39.8732 70.28 39.8766 70.4986 39.8799L70.4988 39.8799C70.9327 39.8866 71.3621 39.8932 71.7872 39.8732C72.816 39.8131 73.8247 39.6428 74.7636 39.1719C75.9622 38.5708 76.5215 37.579 76.4316 36.2867C76.3417 34.9743 75.6326 34.0226 74.3641 33.6419C72.4664 33.0709 70.7185 33.4716 69.2303 34.7439C67.4225 36.2867 66.7433 38.3304 67.003 40.6646C67.1828 42.3176 68.0817 43.4998 69.7197 43.9205C71.4776 44.3714 73.2055 44.1309 74.8735 43.4497C74.9933 43.3996 75.1332 43.2093 75.1232 43.089C75.0992 42.6002 75.0497 42.1115 75.0001 41.6227L75.0001 41.6225C74.9877 41.5002 74.9754 41.378 74.9634 41.2557C74.9306 41.2557 74.9062 41.254 74.8874 41.2527C74.8605 41.2509 74.8453 41.2498 74.8335 41.2557C74.7237 41.2958 74.6138 41.3359 74.5139 41.3759C73.5551 41.7466 72.5663 41.9069 71.5375 41.7867ZM73.0854 37.3487C72.4761 37.6693 70.898 37.8596 70.1289 37.6994C70.2887 36.3669 71.697 35.325 72.8856 35.6156C73.2851 35.7158 73.5748 35.9261 73.6447 36.3569C73.7146 36.7777 73.5048 37.1283 73.0854 37.3487ZM79.8176 39.9135C79.7277 40.8952 80.4269 41.6466 81.4956 41.7869C82.4944 41.9071 83.4532 41.7568 84.3921 41.4162C84.4784 41.3837 84.5619 41.3512 84.6535 41.3155L84.6539 41.3154C84.7316 41.2851 84.8152 41.2526 84.9114 41.2158C84.9309 41.4276 84.9525 41.635 84.9738 41.8397L84.974 41.8412C85.0181 42.2654 85.061 42.6773 85.0812 43.0892C85.0912 43.2094 84.9514 43.3998 84.8415 43.4499C83.1436 44.1512 81.3957 44.3916 79.6078 43.9007C77.9998 43.4599 77.1608 42.2878 76.9611 40.6849C76.7114 38.6311 77.2407 36.7778 78.669 35.255C80.2071 33.622 82.0948 33.041 84.2722 33.6421C85.6006 34.0128 86.3097 34.9745 86.3896 36.327C86.4695 37.6494 85.8703 38.6412 84.6218 39.2222C83.3633 39.8033 82.0249 39.8934 80.6666 39.9235C80.3969 39.9135 80.1172 39.9135 79.8176 39.9135ZM80.643 37.7506L80.6431 37.7506C81.0862 37.7284 81.513 37.7069 81.9348 37.6495C82.3344 37.5995 82.7339 37.4792 83.0934 37.3089C83.483 37.1386 83.6727 36.778 83.6128 36.3372C83.5529 35.9164 83.2732 35.716 82.8837 35.6159C81.7051 35.2953 80.2369 36.3772 80.107 37.7798C80.2887 37.7684 80.4671 37.7594 80.643 37.7506ZM86.9389 41.7868C86.809 42.468 86.6892 43.1392 86.5593 43.8806C86.7594 43.8806 86.9565 43.881 87.1514 43.8814C87.9199 43.883 88.6529 43.8845 89.3859 43.8605C89.4558 43.8605 89.5657 43.6702 89.5857 43.55C89.6875 43.0496 89.782 42.5469 89.8764 42.0442C90.0505 41.1176 90.2245 40.1915 90.4446 39.2822C90.934 37.2585 91.763 36.5573 93.7306 36.2968C93.8105 36.2868 93.9404 36.1966 93.9604 36.1265C94.0857 35.5507 94.198 34.9704 94.3145 34.3685C94.3744 34.0594 94.4353 33.7445 94.4997 33.4216C92.602 33.2212 91.5433 34.3232 90.6244 35.6757L90.6391 35.4812C90.6842 34.8827 90.7301 34.2736 90.7842 33.632C90.5766 33.632 90.3728 33.6313 90.1719 33.6307C89.5803 33.6288 89.0137 33.627 88.447 33.642C88.3671 33.652 88.2173 33.8323 88.2073 33.9425C87.9942 36.5174 87.4898 39.0357 86.9858 41.5524L86.9389 41.7868Z" fill="#57626C"/>
<path fill-rule="evenodd" clip-rule="evenodd" d="M60.495 21.5758C60.3938 21.5491 60.2927 21.5223 60.1916 21.4998C59.8819 21.4998 59.5723 21.4998 59.2427 21.5098C59.1301 21.5324 59.0176 21.557 58.9041 21.5818C58.7658 21.612 58.6262 21.6426 58.4836 21.6701C56.9555 21.9606 55.5172 22.4916 54.1289 23.1928C51.1226 24.7156 48.4258 26.6892 46.0088 29.0234C44.4007 30.5662 42.8426 32.1791 41.3344 33.8321C38.6876 36.7374 36.4204 39.9332 34.6126 43.4396C33.6837 45.2529 32.8447 47.1062 32.4652 49.1199C32.3953 49.4906 32.5151 49.9213 32.635 50.292C32.6849 50.4423 32.9646 50.5525 33.1543 50.6126C33.2043 50.6326 33.3541 50.3822 33.424 50.2419C33.4488 50.1876 33.4742 50.1319 33.5002 50.075C33.934 49.1248 34.5205 47.8398 35.0294 46.9891C36.1081 45.1858 36.9597 43.7902 38.1683 42.0771C40.1059 39.3221 42.3699 36.619 44.7471 34.2347C46.9943 31.9806 49.2448 29.9651 52.0714 28.4424C53.3698 27.7511 54.6982 27.0699 56.0566 26.5088C58.4037 25.5371 60.8508 24.8759 63.3677 24.5052C63.6374 24.4651 63.997 24.2548 64.0869 24.0344C64.1668 23.834 63.977 23.4533 63.7872 23.263C63.0181 22.4715 62.1192 21.8704 61.0006 21.6901C60.832 21.6651 60.6635 21.6204 60.495 21.5758ZM37.6288 35.2449C38.1082 33.9425 38.3479 32.59 38.3779 31.1875C38.3646 31.0372 38.3535 30.887 38.3424 30.7367C38.3202 30.4361 38.298 30.1356 38.258 29.835C37.9884 27.5108 36.9896 25.5372 35.4015 23.8442C35.2117 23.6538 34.952 23.5035 34.6924 23.4134C34.4327 23.3132 34.2629 23.4635 34.2829 23.764C34.2833 23.7704 34.2838 23.7767 34.2843 23.7831C34.3038 24.0377 34.324 24.3013 34.3727 24.5555C34.4429 24.9558 34.5126 25.3566 34.5824 25.7577C34.8303 27.1834 35.0787 28.6124 35.3516 30.0354C35.6212 31.468 35.9209 32.8906 36.2405 34.3031C36.3504 34.754 36.5301 35.2048 36.7499 35.6255C36.9197 35.9461 37.1594 35.9161 37.3791 35.6255L37.3791 35.6255C37.479 35.5053 37.5789 35.3851 37.6288 35.2449Z" fill="#57626C"/>
</g>
</svg>
