<svg width="105" height="73" viewBox="0 0 105 73" fill="none" xmlns="http://www.w3.org/2000/svg">
<g opacity="0.5">
<path fill-rule="evenodd" clip-rule="evenodd" d="M29.7 46.2228H25.0332C24.7138 46.2228 24.4422 46.4549 24.3924 46.77L22.5049 58.7372C22.4674 58.9734 22.6503 59.1863 22.8898 59.1863H25.1178C25.4371 59.1863 25.7087 58.9542 25.7585 58.6384L26.2676 55.4107C26.3167 55.0946 26.589 54.8628 26.9077 54.8628H28.3851C31.4593 54.8628 33.2334 53.3751 33.697 50.4272C33.9057 49.1375 33.7058 48.1241 33.1017 47.4143C32.4386 46.6352 31.2619 46.2228 29.7 46.2228ZM30.2384 50.5936C29.9833 52.2683 28.7038 52.2683 27.4666 52.2683H26.7623L27.2564 49.1407C27.2857 48.9518 27.4495 48.8126 27.6406 48.8126H27.9634C28.8061 48.8126 29.6012 48.8126 30.012 49.2929C30.2568 49.5796 30.3319 50.0053 30.2384 50.5936ZM43.6504 50.5399H41.4155C41.2251 50.5399 41.0606 50.6792 41.0312 50.8684L40.9324 51.4933L40.776 51.2669C40.2923 50.5646 39.2135 50.3299 38.1367 50.3299C35.6669 50.3299 33.5577 52.2004 33.1469 54.8243C32.9334 56.1329 33.2369 57.3844 33.9793 58.2572C34.6605 59.0596 35.635 59.3941 36.7942 59.3941C38.784 59.3941 39.8877 58.1145 39.8877 58.1145L39.7879 58.7356C39.7504 58.9731 39.9332 59.186 40.1713 59.186H42.1845C42.5047 59.186 42.7747 58.9539 42.8252 58.6381L44.0331 50.989C44.0713 50.7537 43.8891 50.5399 43.6504 50.5399ZM40.5351 54.8896C40.3194 56.1664 39.306 57.0234 38.0138 57.0234C37.3649 57.0234 36.846 56.8153 36.5132 56.4209C36.1829 56.0293 36.0572 55.4716 36.1624 54.8508C36.3638 53.5848 37.3942 52.6999 38.6669 52.6999C39.3013 52.6999 39.8173 52.9106 40.1571 53.3085C40.4975 53.7105 40.6327 54.2713 40.5351 54.8896ZM53.3069 50.5396H55.5528C55.8673 50.5396 56.0508 50.8924 55.8721 51.1504L48.4027 61.9321C48.2817 62.1067 48.0825 62.2106 47.8696 62.2106H45.6266C45.3108 62.2106 45.1264 61.855 45.3092 61.5964L47.635 58.3134L45.1614 51.0541C45.0758 50.8017 45.2622 50.5396 45.5306 50.5396H47.7373C48.0241 50.5396 48.277 50.7278 48.3598 51.0023L49.6725 55.3867L52.7701 50.8242C52.8913 50.6461 53.0928 50.5396 53.3069 50.5396Z" fill="#57626C"/>
<path fill-rule="evenodd" clip-rule="evenodd" d="M77.6567 58.7371L79.5719 46.5511C79.6013 46.3619 79.7652 46.2227 79.9556 46.222H82.1118C82.3499 46.222 82.5328 46.4355 82.4952 46.6717L80.6065 58.6383C80.5572 58.9541 80.2856 59.1862 79.9657 59.1862H78.04C77.8019 59.1862 77.6191 58.9733 77.6567 58.7371ZM62.9885 46.2227H58.3208C58.0022 46.2227 57.7306 46.4548 57.6807 46.7699L55.7932 58.7371C55.7557 58.9733 55.9385 59.1862 56.1769 59.1862H58.5719C58.7945 59.1862 58.9849 59.0239 59.0197 58.8028L59.5553 55.4106C59.6045 55.0945 59.8767 54.8627 60.1954 54.8627H61.672C64.7468 54.8627 66.5206 53.375 66.9845 50.4271C67.1939 49.1374 66.9927 48.124 66.389 47.4142C65.7261 46.6351 64.5504 46.2227 62.9885 46.2227ZM63.5269 50.5935C63.2724 52.2682 61.9928 52.2682 60.7549 52.2682H60.0514L60.5462 49.1406C60.5756 48.9517 60.7379 48.8125 60.9296 48.8125H61.2523C62.0945 48.8125 62.8903 48.8125 63.3008 49.2928C63.5459 49.5795 63.6204 50.0052 63.5269 50.5935ZM76.9376 50.5398H74.7043C74.5123 50.5398 74.3494 50.6791 74.3207 50.8683L74.2218 51.4932L74.0649 51.2668C73.5811 50.5645 72.503 50.3298 71.4261 50.3298C68.9563 50.3298 66.8478 52.2003 66.4369 54.8242C66.2241 56.1328 66.5263 57.3843 67.2687 58.2571C67.9512 59.0595 68.9244 59.394 70.0837 59.394C72.0735 59.394 73.1769 58.1144 73.1769 58.1144L73.0774 58.7356C73.0398 58.973 73.2227 59.1859 73.4623 59.1859H75.4746C75.7932 59.1859 76.0648 58.9538 76.1147 58.638L77.3232 50.9889C77.3601 50.7536 77.1773 50.5398 76.9376 50.5398ZM73.8227 54.8895C73.6082 56.1663 72.5936 57.0233 71.3011 57.0233C70.6534 57.0233 70.1336 56.8152 69.8004 56.4208C69.4701 56.0292 69.346 55.4715 69.4499 54.8507C69.6523 53.5847 70.6815 52.6999 71.9541 52.6999C72.5889 52.6999 73.1045 52.9105 73.4447 53.3084C73.7863 53.7104 73.9215 54.2712 73.8227 54.8895Z" fill="#57626C"/>
<path d="M46.9712 41.9416L47.545 38.2973L46.267 38.2676H40.1643L44.4054 11.3762C44.4183 11.295 44.4613 11.2193 44.5238 11.1655C44.5863 11.1118 44.6665 11.0822 44.7499 11.0822H55.0399C58.4561 11.0822 60.8135 11.793 62.0445 13.1961C62.6214 13.8543 62.989 14.5422 63.1668 15.2991C63.3531 16.0934 63.3566 17.0423 63.1744 18.1997L63.1611 18.2842V19.0257L63.7384 19.3527C64.2244 19.6104 64.6103 19.9056 64.9065 20.2434C65.4004 20.8062 65.7196 21.5215 65.8545 22.3695C65.9937 23.2416 65.9476 24.2794 65.7196 25.4543C65.4563 26.8059 65.0306 27.983 64.4558 28.9462C63.9269 29.8337 63.2533 30.5696 62.4537 31.1403C61.6901 31.6822 60.7829 32.0936 59.7572 32.357C58.7631 32.6156 57.63 32.7464 56.3871 32.7464H55.5862C55.0137 32.7464 54.4573 32.9526 54.0209 33.3224C53.5832 33.6997 53.2933 34.2151 53.2045 34.7791L53.1442 35.1072L52.1305 41.5301L52.0844 41.766C52.0724 41.8408 52.0516 41.8781 52.021 41.9033C51.9935 41.9261 51.954 41.9416 51.9155 41.9416H46.9712Z" fill="#383E43"/>
<path d="M64.2846 18.3701C64.254 18.5665 64.2189 18.7672 64.1795 18.9735C62.8222 25.9407 58.1798 28.3476 52.2502 28.3476H49.2312C48.5062 28.3476 47.8951 28.8742 47.7821 29.5894L46.2363 39.3926L45.7986 42.1712C45.725 42.6408 46.0872 43.0643 46.5609 43.0643H51.9158C52.5499 43.0643 53.0883 42.6035 53.1881 41.9783L53.2408 41.7061L54.2491 35.3082L54.3139 34.9573C54.4124 34.3298 54.9521 33.8691 55.5862 33.8691H56.387C61.5748 33.8691 65.6362 31.7628 66.8233 25.6676C67.3191 23.1213 67.0623 20.9953 65.7502 19.5C65.3533 19.0492 64.8606 18.6751 64.2846 18.3701Z" fill="#57626C"/>
<path d="M62.8643 17.8045C62.6572 17.7441 62.4431 17.6893 62.2236 17.6399C62.0032 17.5916 61.7771 17.5489 61.5447 17.5116C60.7305 17.3799 59.8388 17.3174 58.8832 17.3174H50.8179C50.6193 17.3174 50.4307 17.3624 50.2618 17.4435C49.8898 17.6223 49.6135 17.9745 49.5465 18.4056L47.8305 29.2728L47.7812 29.5898C47.8943 28.8746 48.5054 28.348 49.2304 28.348H52.2494C58.179 28.348 62.8217 25.94 64.1787 18.9739C64.2191 18.7676 64.2532 18.5669 64.2838 18.3705C63.9405 18.1884 63.5685 18.0326 63.1681 17.8999C63.0696 17.867 62.9676 17.8352 62.8643 17.8045Z" fill="#57626C"/>
<path d="M49.5466 18.4055C49.6135 17.9744 49.8902 17.6222 50.2618 17.4445C50.4321 17.3633 50.6196 17.3183 50.818 17.3183H58.8836C59.8391 17.3183 60.7309 17.3809 61.5447 17.5125C61.7775 17.5498 62.0036 17.5926 62.224 17.6408C62.4435 17.6902 62.6572 17.7451 62.8647 17.8054C62.9677 17.8361 63.0697 17.8679 63.1695 17.8998C63.5699 18.0325 63.9419 18.1894 64.2851 18.3704C64.689 15.7957 64.282 14.0426 62.89 12.4552C61.3552 10.7076 58.5851 9.95947 55.0407 9.95947H44.7504C44.0263 9.95947 43.4089 10.486 43.2968 11.2024L39.0109 38.3703C38.9262 38.9078 39.3409 39.3929 39.8828 39.3929H46.2358L47.8309 29.2727L49.5466 18.4055Z" fill="#383E43"/>
</g>
</svg>
