<svg width="106" height="73" viewBox="0 0 106 73" fill="none" xmlns="http://www.w3.org/2000/svg">
<g opacity="0.5">
<path fill-rule="evenodd" clip-rule="evenodd" d="M32.1792 49.4522H25.7577L20.9423 31.0018C20.7137 30.1531 20.2284 29.4028 19.5146 29.0492C17.7331 28.1605 15.77 27.4532 13.6284 27.0965V26.3862H23.973C25.4007 26.3862 26.4715 27.4532 26.65 28.6925L29.1485 42.0013L35.5669 26.3862H41.81L32.1792 49.4522ZM45.3793 49.4522H39.3147L44.3086 26.3862H50.3732L45.3793 49.4522ZM58.2193 32.776C58.3977 31.5336 59.4685 30.8233 60.7178 30.8233C62.6809 30.6449 64.8193 31.0017 66.6039 31.8873L67.6747 26.921C65.8901 26.2107 63.927 25.854 62.1455 25.854C56.2593 25.854 51.9762 29.049 51.9762 33.4832C51.9762 36.8566 55.0101 38.6278 57.1516 39.6949C59.4685 40.7588 60.3608 41.4692 60.1824 42.5331C60.1824 44.1291 58.3977 44.8394 56.6162 44.8394C54.4747 44.8394 52.3331 44.3074 50.3732 43.4188L49.3024 48.3881C51.4439 49.2737 53.7608 49.6304 55.9024 49.6304C62.5024 49.8057 66.6039 46.6137 66.6039 41.8228C66.6039 35.7895 58.2193 35.4359 58.2193 32.776ZM87.8284 49.4522L83.0131 26.3862H77.8408C76.77 26.3862 75.6992 27.0965 75.3423 28.1605L66.4254 49.4522H72.6685L73.9146 46.0819H81.5854L82.2992 49.4522H87.8284ZM78.7332 32.5975L80.5147 41.2907H75.5208L78.7332 32.5975Z" fill="#57626C"/>
</g>
</svg>
