<svg width="90" height="60" viewBox="0 0 90 60" fill="none" xmlns="http://www.w3.org/2000/svg">
<mask id="mask0_655_1811" style="mask-type:alpha" maskUnits="userSpaceOnUse" x="-40" y="0" width="130" height="60">
<rect x="-40" width="130" height="60" fill="#585978"/>
</mask>
<g mask="url(#mask0_655_1811)">
<path fill-rule="evenodd" clip-rule="evenodd" d="M-17.0277 33.8312V38.5785H-20.4204V27.8361C-20.4369 26.9325 -20.2656 26.0353 -19.9173 25.2C-19.5691 24.3647 -19.0511 23.6092 -18.3957 22.9803C-17.0551 21.6509 -15.3041 21 -13.1973 21C-11.0359 21 -9.28485 21.6511 -7.94419 22.9803C-7.29258 23.6106 -6.77898 24.367 -6.43536 25.2024C-6.09175 26.0378 -5.92548 26.9343 -5.9469 27.8361V38.5785H-9.33956V33.8312H-17.0277ZM-13.1973 24.3367C-15.605 24.3367 -17.0277 25.8016 -17.0277 27.7547V30.4674H-9.33956V28.0801C-9.33956 25.8829 -10.7896 24.3367 -13.1973 24.3367ZM-38 30.3063C-38 23.9789 -32.4264 22.0341 -27.6972 22.0341H-22.4895V25.2237H-27.0779C-32.2293 25.2237 -34.2843 27.5575 -34.2843 30.2804C-34.2843 33.5737 -32.2012 35.389 -27.6972 35.389H-25.9801V30.2804H-22.4895V38.5785H-27.6972C-32.4264 38.5785 -38 36.6337 -38 30.3063ZM7.49733 38.5785V35.389H-0.581707V22.0341H-3.877V38.5785H7.49733ZM30.3715 38.5785H26.1098L31.7036 30.6693L32.2069 30.0989H31.9108L26.1098 22.0341H30.3715L34.3671 27.5834L38.3922 22.0341H42.6543L37.1788 29.6061L36.7056 30.0988H37.1199L42.6543 38.5785H38.3922L34.5448 32.692L30.3715 38.5785ZM48.2984 22.0341C44.1267 22.0341 42.6544 24.2901 42.6544 26.8314C42.6544 29.1912 43.7722 31.7326 47.7259 31.7326H50.1525C51.8976 31.7326 52.8518 32.0178 52.8518 33.5478C52.8518 34.9222 51.8976 35.389 50.1525 35.389H43.4176V38.5785H50.1525C54.7334 38.5785 56.0968 36.867 56.0968 33.6515C56.0968 31.2657 55.0332 28.6985 50.3708 28.6985H48.1075C46.6623 28.6985 45.8989 28.3354 45.8989 27.0129C45.8989 25.7941 46.6623 25.2237 48.1346 25.2237H54.7333V22.0341H48.2984ZM68.8098 22.0341H72.6412L66.2267 33.1847V38.5785H62.6273V33.1847L56.0967 22.0341H59.9281L64.369 30.0989L68.8098 22.0341ZM79.3192 22.0341C75.1476 22.0341 73.6752 24.2901 73.6752 26.8314C73.6752 29.1912 74.7931 31.7326 78.7468 31.7326H81.1738C82.9185 31.7326 83.8731 32.0178 83.8731 33.5478C83.8731 34.9222 82.9185 35.389 81.1738 35.389H74.4389V38.5785H81.1737C85.7542 38.5785 87.1176 36.867 87.1176 33.6515C87.1176 31.2657 86.0541 28.6985 81.3917 28.6985H79.1284C77.6835 28.6985 76.9198 28.3354 76.9198 27.0129C76.9198 25.7941 77.6835 25.2237 79.1559 25.2237H85.7542V22.0341H79.3192ZM14.2357 33.8312V38.5785H10.6006V27.8361C10.5829 26.9325 10.7664 26.0353 11.1396 25.1999C11.5127 24.3646 12.0677 23.6091 12.7699 22.9803C14.2061 21.6509 16.0823 21 18.3396 21C20.6554 21 22.5315 21.6511 23.9682 22.9803C24.6663 23.6107 25.2165 24.3671 25.5846 25.2025C25.9527 26.0379 26.1309 26.9343 26.1079 27.8361V38.5785H22.4731V33.8312H14.2357ZM18.3396 24.3367C15.7599 24.3367 14.2357 25.8015 14.2357 27.7547V30.4675H22.4731V28.0803C22.4731 25.8829 20.9193 24.3367 18.3396 24.3367Z" fill="#585978"/>
</g>
</svg>
